<svg
  width="36"
  height="36"
  viewBox="0 0 24 24"
  xmlns="http://www.w3.org/2000/svg"
>
  <!-- корпус геймпада -->
  <path
    d="M7.5 8C6.3 8 5.3 8.8 5.1 9.9L4.3 13.9C4 15.4 5.1 16.8 6.6 17
       C7.8 17.2 8.9 16.5 9.3 15.4L9.7 14.4H14.3L14.7 15.4C15.1 16.5 16.2 17.2 17.4 17
       C18.9 16.8 20 15.4 19.7 13.9L18.9 9.9C18.7 8.8 17.7 8 16.5 8H7.5Z"
    fill="currentColor"
  />

  <!-- крестовина -->
  <rect x="8.2" y="10.4" width="0.6" height="2.4" rx="0.3" fill="#ffffff"/>
  <rect x="7.4" y="11.2" width="2.4" height="0.6" rx="0.3" fill="#ffffff"/>

  <!-- кнопки -->
  <circle cx="15.7" cy="11.3" r="0.6" fill="#ffffff"/>
  <circle cx="17"   cy="12.4" r="0.6" fill="#ffffff"/>
</svg>
